# xmcd
#
# Track frame offsets:
#	150
#	27578
#	43329
#	65682
#	83045
#	108273
#	133580
#	172565
#	207849
#	237954
#	252339
#
# Disc length: 3774 seconds
#
# Revision: 1
# Processed by: cddbd v1.5.1PL2 Copyright (c) Steve Scherf et al.
# Submitted via: EasyCDDAExtractor 9.0.0.1
#
DISCID=920ebc0b
DTITLE=Dio - Arrow Rock Lichtenvoorde 09-06-06 Source 2 
DYEAR=2006
DGENRE=Hard Rock
TTITLE0=Children Of The Sea
TTITLE1=Stand Up And Shout
TTITLE2=Holy Diver
TTITLE3=Gypsy
TTITLE4=Drum Solo
TTITLE5=I
TTITLE6=All The Fools Sailed Away
TTITLE7=Rainbow In The Dark
TTITLE8=Heaven and Hell
TTITLE9=Heaven and Hell Reprise
TTITLE10=We Rock
EXTD=
EXTT0=
EXTT1=
EXTT2=
EXTT3=
EXTT4=
EXTT5=
EXTT6=
EXTT7=
EXTT8=
EXTT9=
EXTT10=
PLAYORDER=
